GIL03_free4_ik
nRows=3
nColumns=375

# SIMM Motion File Header:
name GIL03_free4_ik
datacolumns 375
datarows 3
otherdata 1
range 0.13333000 0.15000000
endheader
time	pelvis_tx	pelvis_ty	pelvis_tz	pelvis_tilt	pelvis_list	pelvis_rotation	hip_flexion_r	hip_adduction_r	hip_rotation_r	knee_angle_r	ankle_angle_r	hip_flexion_l	hip_adduction_l	hip_rotation_l	knee_angle_l	ankle_angle_l	lumbar_extension	lumbar_bending	lumbar_rotation	subtalar_angle_r	mtp_angle_r	subtalar_angle_l	mtp_angle_l	asis_r_px	asis_r_py	asis_r_pz	asis_l_px	asis_l_py	asis_l_pz	midasis_px	midasis_py	midasis_pz	psis_r_px	psis_r_py	psis_r_pz	psis_l_px	psis_l_py	psis_l_pz	hip_r_px	hip_r_py	hip_r_pz	hip_l_px	hip_l_py	hip_l_pz	midhip_px	midhip_py	midhip_pz	epicondLat_r_px	epicondLat_r_py	epicondLat_r_pz	epicondMed_r_px	epicondMed_r_py	epicondMed_r_pz	thighwand_r_px	thighwand_r_py	thighwand_r_pz	upperleg1_r_px	upperleg1_r_py	upperleg1_r_pz	upperleg2_r_px	upperleg2_r_py	upperleg2_r_pz	malleolusLat_r_px	malleolusLat_r_py	malleolusLat_r_pz	malleolusMedv_r_px	malleolusMedv_r_py	malleolusMedv_r_pz	shankwand_r_px	shankwand_r_py	shankwand_r_pz	lowerleg1_r_px	lowerleg1_r_py	lowerleg1_r_pz	knee_r_px	knee_r_py	knee_r_pz	ankle_r_px	ankle_r_py	ankle_r_pz	toe_r_px	toe_r_py	toe_r_pz	epicondLat_l_px	epicondLat_l_py	epicondLat_l_pz	epicondMed_l_px	epicondMed_l_py	epicondMed_l_pz	thighwand_l_px	thighwand_l_py	thighwand_l_pz	upperleg1_l_px	upperleg1_l_py	upperleg1_l_pz	upperleg2_l_px	upperleg2_l_py	upperleg2_l_pz	malleolusLat_l_px	malleolusLat_l_py	malleolusLat_l_pz	malleolusMedv_l_px	malleolusMedv_l_py	malleolusMedv_l_pz	shankwand_l_px	shankwand_l_py	shankwand_l_pz	lowerleg1_l_px	lowerleg1_l_py	lowerleg1_l_pz	knee_l_px	knee_l_py	knee_l_pz	ankle_l_px	ankle_l_py	ankle_l_pz	toe_l_px	toe_l_py	toe_l_pz	subclavicle_r_px	subclavicle_r_py	subclavicle_r_pz	subclavicle_l_px	subclavicle_l_py	subclavicle_l_pz	neck_px	neck_py	neck_pz	sternalnotch_px	sternalnotch_py	sternalnotch_pz	xyphoidprocess_px	xyphoidprocess_py	xyphoidprocess_pz	midhip_tx	midhip_ty	midhip_tz	hip_r_tx	hip_r_ty	hip_r_tz	hip_l_tx	hip_l_ty	hip_l_tz	knee_r_tx	knee_r_ty	knee_r_tz	knee_l_tx	knee_l_ty	knee_l_tz	ankle_r_tx	ankle_r_ty	ankle_r_tz	ankle_l_tx	ankle_l_ty	ankle_l_tz	midasis_tx	midasis_ty	midasis_tz	asis_r_tx	asis_r_ty	asis_r_tz	asis_l_tx	asis_l_ty	asis_l_tz	psis_r_tx	psis_r_ty	psis_r_tz	psis_l_tx	psis_l_ty	psis_l_tz	epicondLat_r_tx	epicondLat_r_ty	epicondLat_r_tz	epicondLat_l_tx	epicondLat_l_ty	epicondLat_l_tz	epicondMed_r_tx	epicondMed_r_ty	epicondMed_r_tz	epicondMed_l_tx	epicondMed_l_ty	epicondMed_l_tz	malleolusLat_r_tx	malleolusLat_r_ty	malleolusLat_r_tz	malleolusLat_l_tx	malleolusLat_l_ty	malleolusLat_l_tz	malleolusMedv_r_tx	malleolusMedv_r_ty	malleolusMedv_r_tz	malleolusMedv_l_tx	malleolusMedv_l_ty	malleolusMedv_l_tz	neck_tx	neck_ty	neck_tz	subclavicle_r_tx	subclavicle_r_ty	subclavicle_r_tz	subclavicle_l_tx	subclavicle_l_ty	subclavicle_l_tz	sternalnotch_tx	sternalnotch_ty	sternalnotch_tz	xyphoidprocess_tx	xyphoidprocess_ty	xyphoidprocess_tz	thighwand_r_tx	thighwand_r_ty	thighwand_r_tz	thighwand_l_tx	thighwand_l_ty	thighwand_l_tz	upperleg1_r_tx	upperleg1_r_ty	upperleg1_r_tz	upperleg1_l_tx	upperleg1_l_ty	upperleg1_l_tz	upperleg2_r_tx	upperleg2_r_ty	upperleg2_r_tz	upperleg2_l_tx	upperleg2_l_ty	upperleg2_l_tz	shankwand_r_tx	shankwand_r_ty	shankwand_r_tz	shankwand_l_tx	shankwand_l_ty	shankwand_l_tz	lowerleg1_r_tx	lowerleg1_r_ty	lowerleg1_r_tz	lowerleg1_l_tx	lowerleg1_l_ty	lowerleg1_l_tz	toe_r_tx	toe_r_ty	toe_r_tz	toe_l_tx	toe_l_ty	toe_l_tz	ground_force_vx	ground_force_vy	ground_force_vz	ground_force_px	ground_force_py	ground_force_pz	ground_force_vx	ground_force_vy	ground_force_vz	ground_force_px	ground_force_py	ground_force_pz	ground_torque_x	ground_torque_y	ground_torque_z	ground_torque_x	ground_torque_y	ground_torque_z	ground_marker_px	ground_marker_py	ground_marker_pz	ground_marker_px	ground_marker_py	ground_marker_pz	ground_marker_px	ground_marker_py	ground_marker_pz	ground_marker_px	ground_marker_py	ground_marker_pz	ground_marker_px	ground_marker_py	ground_marker_pz	ground_marker_px	ground_marker_py	ground_marker_pz	ground_marker_px	ground_marker_py	ground_marker_pz	ground_marker_px	ground_marker_py	ground_marker_pz	ground_marker_px	ground_marker_py	ground_marker_pz	ground_marker_px	ground_marker_py	ground_marker_pz	ground_marker_px	ground_marker_py	ground_marker_pz	ground_marker_px	ground_marker_py	ground_marker_pz	ground_marker_px	ground_marker_py	ground_marker_pz	ground_marker_px	ground_marker_py	ground_marker_pz	ground_marker_px	ground_marker_py	ground_marker_pz	ground_marker_px	ground_marker_py	ground_marker_pz	ground_marker_px	ground_marker_py	ground_marker_pz	ground_marker_px	ground_marker_py	ground_marker_pz	ground_marker_px	ground_marker_py	ground_marker_pz	ground_marker_px	ground_marker_py	ground_marker_pz	ground_marker_px	ground_marker_py	ground_marker_pz	ground_marker_px	ground_marker_py	ground_marker_pz	ground_marker_px	ground_marker_py	ground_marker_pz	ground_marker_px	ground_marker_py	ground_marker_pz	ground_marker_px	ground_marker_py	ground_marker_pz	ground_marker_px	ground_marker_py	ground_marker_pz	ground_marker_px	ground_marker_py	ground_marker_pz	ground_marker_px	ground_marker_py	ground_marker_pz	ground_marker_px	ground_marker_py	ground_marker_pz	ground_marker_px	ground_marker_py	ground_marker_pz	ground_marker_px	ground_marker_py	ground_marker_pz	ground_marker_px	ground_marker_py	ground_marker_pz	ground_marker_px	ground_marker_py	ground_marker_pz	ground_marker_px	ground_marker_py	ground_marker_pz	ground_marker_px	ground_marker_py	ground_marker_pz	ground_marker_px	ground_marker_py	ground_marker_pz	ground_marker_px	ground_marker_py	ground_marker_pz
      0.13333000	      0.02974896	      0.86195215	     -0.24270749	      4.42846222	     -3.42070217	      5.60248453	     20.28256768	      3.72653489	      3.19431873	    -24.54787182	      1.62322991	     -7.22236859	    -12.22814264	     -6.29210587	    -50.51835166	     -9.28812720	    -15.35076275	      7.82516728	     -0.78826238	      0.00000000	      0.00000000	      0.00000000	      0.00000000	      0.08668381	      0.87500122	     -0.15548802	      0.05075451	      0.85427366	     -0.35288567	      0.04070216	      0.86273597	     -0.24378276	     -0.07905625	      0.90919448	     -0.20691280	     -0.08918419	      0.90424817	     -0.26064984	     -0.01544571	      0.81053925	     -0.16879181	     -0.02765308	      0.80175477	     -0.29954634	     -0.02154940	      0.80614701	     -0.23416908	      0.18012582	      0.46756285	     -0.12865223	      0.14040898	      0.44742462	     -0.22872921	      0.22132446	      0.66880946	     -0.21476949	      0.14580586	      0.69156013	     -0.15136012	      0.16987519	      0.60897559	     -0.14950914	      0.13282844	      0.05378589	     -0.13134842	      0.15526496	      0.06616625	     -0.20021501	      0.14380948	      0.17722247	     -0.06226520	      0.14219580	      0.18310016	     -0.10416850	      0.13848285	      0.46768373	     -0.18473127	      0.13852275	      0.06879074	     -0.17240545	      0.25703867	      0.03499777	     -0.13944682	     -0.04856780	      0.42890857	     -0.41608010	     -0.04407690	      0.40087492	     -0.31052072	      0.10063250	      0.57244930	     -0.35122521	      0.02385304	      0.62788862	     -0.38668828	      0.01691452	      0.54029134	     -0.39290462	     -0.39317596	      0.18904177	     -0.36703901	     -0.35621726	      0.16482235	     -0.31541316	     -0.33774645	      0.30411507	     -0.41810206	     -0.31451412	      0.28660285	     -0.38607769	     -0.05004019	      0.42543579	     -0.35370975	     -0.36878716	      0.18659037	     -0.32879443	     -0.36472927	      0.07036811	     -0.39609416	      0.04801675	      1.24183136	     -0.16708514	      0.04469275	      1.24581711	     -0.27617719	     -0.05520164	      1.29776694	     -0.21220938	      0.03092117	      1.25307300	     -0.22604590	      0.10783983	      1.09588679	     -0.23288492	     -0.01641900	      0.80960400	     -0.22868000	     -0.00367100	      0.79608200	     -0.16798400	     -0.02566800	      0.78749800	     -0.28305900	      0.14861300	      0.45299700	     -0.18386200	     -0.05072900	      0.42133600	     -0.33820500	      0.14264800	      0.06278200	     -0.18918800	     -0.37619600	      0.18220000	     -0.32970600	      0.04105700	      0.87407300	     -0.23622900	      0.05142600	      0.87988800	     -0.13757700	      0.03068900	      0.86825700	     -0.33488100	     -0.11526300	      0.89749600	     -0.19230500	     -0.12124100	      0.89565600	     -0.24690700	      0.16362000	      0.45721700	     -0.13111800	     -0.05256300	      0.42957100	     -0.39204800	      0.13891900	      0.44565600	     -0.22689400	     -0.04345800	      0.40121800	     -0.29365400	      0.13918900	      0.06231100	     -0.15084700	     -0.37785900	      0.18309800	     -0.36815900	      0.16427900	      0.07389400	     -0.21940800	     -0.35499600	      0.17961400	     -0.30683100	     -0.04857300	      1.31307700	     -0.21154600	      0.04778300	      1.23009600	     -0.16801300	      0.04149200	      1.23394600	     -0.27606500	      0.03026600	      1.24469600	     -0.22607900	      0.07019300	      1.07362900	     -0.23331200	      0.20594900	      0.67048100	     -0.19482800	      0.10067200	      0.57778200	     -0.32638100	      0.12952700	      0.68264200	     -0.13062700	      0.02356400	      0.62878300	     -0.36743700	      0.15774300	      0.60187400	     -0.13498100	      0.01855900	      0.54143000	     -0.37335100	      0.14762100	      0.17920900	     -0.08005100	     -0.31046200	      0.28865300	     -0.43072400	      0.14738300	      0.18645700	     -0.12220000	     -0.29712500	      0.28028400	     -0.39186500	      0.25814700	      0.04027000	     -0.15309800	     -0.34455200	      0.06334100	     -0.33072600	    -84.37948413	    489.59959938	    -10.28735138	      0.15943430	      0.00000000	     -0.17967406	      0.00000000	      0.00000000	      0.00000000	      0.56659845	      0.00000000	     -0.29025311	      0.00000000	     -0.68591058	      0.00000000	      0.00000000	      0.00000000	      0.00000000	     -0.01641910	      0.80960429	     -0.22868046	     -0.00367084	      0.79608244	     -0.16798446	     -0.02566768	      0.78749841	     -0.28305867	      0.14861284	      0.45299697	     -0.18386213	     -0.05072892	      0.42133641	     -0.33820519	      0.14264819	      0.06278186	     -0.18918797	     -0.37619558	      0.18220003	     -0.32970580	      0.04105748	      0.87407255	     -0.23622879	      0.05142613	      0.87988770	     -0.13757658	      0.03068883	      0.86825746	     -0.33488101	     -0.11526302	      0.89749593	     -0.19230488	     -0.12124082	      0.89565647	     -0.24690694	      0.16362002	      0.45721719	     -0.13111772	     -0.05256271	      0.42957106	     -0.39204827	      0.13891941	      0.44565600	     -0.22689387	     -0.04345771	      0.40121809	     -0.29365441	      0.13918853	      0.06231144	     -0.15084662	     -0.37785929	      0.18309760	     -0.36815938	      0.16427886	      0.07389393	     -0.21940848	     -0.35499626	      0.17961431	     -0.30683103	     -0.04857299	      1.31307745	     -0.21154596	      0.04778350	      1.23009574	     -0.16801320	      0.04149242	      1.23394644	     -0.27606490	      0.03026574	      1.24469638	     -0.22607912	      0.07019269	      1.07362890	     -0.23331225	      0.20594940	      0.67048061	     -0.19482841	      0.10067212	      0.57778221	     -0.32638055	      0.12952694	      0.68264228	     -0.13062653	      0.02356403	      0.62878281	     -0.36743727	      0.15774266	      0.60187417	     -0.13498065	      0.01855945	      0.54143000	     -0.37335145	      0.14762117	      0.17920931	     -0.08005051	     -0.31046176	      0.28865340	     -0.43072358	      0.14738294	      0.18645677	     -0.12219951	     -0.29712465	      0.28028354	     -0.39186510	      0.25814697	      0.04027001	     -0.15309758	     -0.34455186	      0.06334089	     -0.33072594
      0.14167000	      0.03956378	      0.86370728	     -0.24206885	      4.46458845	     -3.51973821	      5.59800866	     19.61020763	      3.96312755	      2.84435411	    -24.65097653	      2.29728849	     -5.73847712	    -12.44051867	     -5.73750836	    -52.92544480	     -9.33780709	    -15.49369355	      7.93131406	     -0.57924986	      0.00000000	      0.00000000	      0.00000000	      0.00000000	      0.09647182	      0.87694228	     -0.15485989	      0.06059759	      0.85585295	     -0.35222924	      0.05051671	      0.86449620	     -0.24314314	     -0.06927901	      0.91094185	     -0.20637833	     -0.07939240	      0.90589684	     -0.26010892	     -0.00561392	      0.81239267	     -0.16807453	     -0.01778795	      0.80337592	     -0.29881636	     -0.01170094	      0.80788429	     -0.23344545	      0.18571762	      0.46700707	     -0.12815903	      0.14626070	      0.44767556	     -0.22849757	      0.22969977	      0.66804539	     -0.21338152	      0.15414194	      0.69146782	     -0.15026414	      0.17723070	      0.60860024	     -0.14857948	      0.13286395	      0.05385602	     -0.13238962	      0.15580828	      0.06614335	     -0.20110539	      0.14516799	      0.17691979	     -0.06286564	      0.14384251	      0.18294756	     -0.10475774	      0.14437667	      0.46780163	     -0.18444354	      0.13896483	      0.06890860	     -0.17337071	      0.25719408	      0.03476363	     -0.13975190	     -0.02855317	      0.43059052	     -0.41691373	     -0.02423088	      0.40225960	     -0.31142671	      0.11652954	      0.57750537	     -0.35029646	      0.03869717	      0.63117635	     -0.38618212	      0.03397178	      0.54345997	     -0.39278334	     -0.37713533	      0.19541554	     -0.36772725	     -0.34066674	      0.17081057	     -0.31593544	     -0.31976254	      0.30937360	     -0.41914369	     -0.29687443	      0.29161763	     -0.38700586	     -0.03025376	      0.42629471	     -0.35469139	     -0.35285920	      0.19272462	     -0.32942713	     -0.35065474	      0.07615883	     -0.39621704	      0.05857323	      1.24331358	     -0.16666285	      0.05494823	      1.24737029	     -0.27574270	     -0.04467162	      1.29946112	     -0.21146217	      0.04133137	      1.25462100	     -0.22556841	      0.11794803	      1.09730116	     -0.23271764	     -0.00671900	      0.81086800	     -0.22744300	      0.00636600	      0.79768100	     -0.16673300	     -0.01577300	      0.78883100	     -0.28176000	      0.15448000	      0.45313300	     -0.18330900	     -0.03130400	      0.42183000	     -0.33801700	      0.14328200	      0.06291800	     -0.18930500	     -0.36036000	      0.18922500	     -0.33248400	      0.05095000	      0.87555500	     -0.23520400	      0.06144900	      0.88159500	     -0.13651400	      0.04045100	      0.86951400	     -0.33389500	     -0.10533300	      0.89905700	     -0.19128400	     -0.11146800	      0.89689100	     -0.24587400	      0.16936700	      0.45699200	     -0.13050300	     -0.03301800	      0.43015500	     -0.39185000	      0.14512800	      0.44627200	     -0.22672200	     -0.02493400	      0.40189500	     -0.29240000	      0.13927800	      0.06244400	     -0.15101600	     -0.36102000	      0.18924300	     -0.37097800	      0.16444800	      0.07386800	     -0.21951600	     -0.33930300	      0.18540500	     -0.30926900	     -0.03803000	      1.31465900	     -0.21083100	      0.05828600	      1.23146500	     -0.16753900	      0.05168100	      1.23544700	     -0.27557600	      0.04060600	      1.24613900	     -0.22558300	      0.08021000	      1.07502900	     -0.23308100	      0.21474500	      0.67005100	     -0.19337900	      0.11594800	      0.58112700	     -0.32501600	      0.13800900	      0.68293700	     -0.12954700	      0.03804000	      0.63053000	     -0.36636500	      0.16525400	      0.60190800	     -0.13405300	      0.03465600	      0.54314000	     -0.37216600	      0.14830300	      0.17922700	     -0.08020800	     -0.29059800	      0.29155900	     -0.43376400	      0.14775800	      0.18675500	     -0.12251000	     -0.27771000	      0.28329400	     -0.39509700	      0.25813300	      0.04026700	     -0.15321300	     -0.33068000	      0.06848100	     -0.33509800	    -78.01115069	    486.87242612	     -9.55741784	      0.15872073	      0.00000000	     -0.17995468	      0.00000000	      0.00000000	      0.00000000	      0.57016437	      0.00000000	     -0.28964355	      0.00000000	     -0.65701758	      0.00000000	      0.00000000	      0.00000000	      0.00000000	     -0.00671926	      0.81086773	     -0.22744343	      0.00636643	      0.79768080	     -0.16673288	     -0.01577298	      0.78883106	     -0.28175965	      0.15447986	      0.45313284	     -0.18330869	     -0.03130359	      0.42183000	     -0.33801708	      0.14328168	      0.06291767	     -0.18930452	     -0.36036012	      0.18922538	     -0.33248374	      0.05094994	      0.87555480	     -0.23520416	      0.06144884	      0.88159549	     -0.13651350	      0.04045105	      0.86951405	     -0.33389482	     -0.10533287	      0.89905733	     -0.19128385	     -0.11146813	      0.89689052	     -0.24587438	      0.16936724	      0.45699215	     -0.13050270	     -0.03301760	      0.43015456	     -0.39185029	      0.14512843	      0.44627160	     -0.22672175	     -0.02493409	      0.40189451	     -0.29239982	      0.13927794	      0.06244425	     -0.15101619	     -0.36102015	      0.18924336	     -0.37097806	      0.16444805	      0.07386842	     -0.21951587	     -0.33930263	      0.18540464	     -0.30926901	     -0.03802997	      1.31465936	     -0.21083115	      0.05828625	      1.23146510	     -0.16753863	      0.05168096	      1.23544741	     -0.27557600	      0.04060604	      1.24613857	     -0.22558281	      0.08020951	      1.07502937	     -0.23308079	      0.21474454	      0.67005086	     -0.19337860	      0.11594762	      0.58112657	     -0.32501623	      0.13800940	      0.68293738	     -0.12954699	      0.03804018	      0.63052982	     -0.36636525	      0.16525438	      0.60190803	     -0.13405344	      0.03465586	      0.54313958	     -0.37216565	      0.14830309	      0.17922698	     -0.08020828	     -0.29059848	      0.29155850	     -0.43376353	      0.14775793	      0.18675463	     -0.12251047	     -0.27771002	      0.28329381	     -0.39509735	      0.25813282	      0.04026658	     -0.15321307	     -0.33068037	      0.06848091	     -0.33509848
      0.15000000	      0.04920584	      0.86555845	     -0.24134853	      4.49588214	     -3.61275470	      5.58138421	     18.85782478	      4.21857825	      2.73329055	    -24.60172390	      2.94023996	     -4.24247866	    -12.54664908	     -4.93943676	    -55.20689143	     -8.87964033	    -15.64044084	      7.99964056	     -0.29676510	      0.00000000	      0.00000000	      0.00000000	      0.00000000	      0.10607012	      0.87896472	     -0.15413719	      0.07028990	      0.85754022	     -0.35148750	      0.06015877	      0.86635184	     -0.24241953	     -0.05967841	      0.91278846	     -0.20577862	     -0.06976660	      0.90765201	     -0.25950529	      0.00402630	      0.81433648	     -0.16729117	     -0.00808826	      0.80510425	     -0.29802348	     -0.00203098	      0.80972037	     -0.23265732	      0.19077505	      0.46640075	     -0.12782158	      0.15120505	      0.44778817	     -0.22825148	      0.23749537	      0.66701807	     -0.21257775	      0.16216445	      0.69129891	     -0.14951355	      0.18416635	      0.60813348	     -0.14796620	      0.13287605	      0.05396620	     -0.13301660	      0.15606057	      0.06612010	     -0.20167545	      0.14658966	      0.17672051	     -0.06320988	      0.14539389	      0.18285418	     -0.10509051	      0.14951442	      0.46785129	     -0.18415768	      0.13921512	      0.06903127	     -0.17395692	      0.25730434	      0.03465828	     -0.14007931	     -0.00832681	      0.43245331	     -0.41703212	     -0.00462329	      0.40398132	     -0.31155954	      0.13230644	      0.58268601	     -0.34830619	      0.05364273	      0.63453799	     -0.38504344	      0.05113282	      0.54674892	     -0.39188802	     -0.36060325	      0.20152373	     -0.36912460	     -0.32482799	      0.17665384	     -0.31697699	     -0.30126153	      0.31438669	     -0.42072152	     -0.27883960	      0.29646289	     -0.38834910	     -0.01051643	      0.42744503	     -0.35495620	     -0.33661571	      0.19867388	     -0.33065453	     -0.33473660	      0.08196594	     -0.39720571	      0.06904865	      1.24491269	     -0.16637625	      0.06499560	      1.24901238	     -0.27543942	     -0.03427221	      1.30126220	     -0.21074466	      0.05159231	      1.25627100	     -0.22520881	      0.12789438	      1.09881496	     -0.23271526	      0.00278700	      0.81228600	     -0.22625500	      0.01615900	      0.79943400	     -0.16553000	     -0.00606400	      0.79034000	     -0.28052100	      0.15962000	      0.45322300	     -0.18273100	     -0.01198100	      0.42274100	     -0.33746900	      0.14362100	      0.06302800	     -0.18934400	     -0.34397700	      0.19594000	     -0.33519700	      0.06064300	      0.87719700	     -0.23419100	      0.07122200	      0.88344700	     -0.13544700	      0.05006300	      0.87094700	     -0.33293500	     -0.09561400	      0.90078300	     -0.19038300	     -0.10184700	      0.89830000	     -0.24497400	      0.17455500	      0.45678800	     -0.12991800	     -0.01331500	      0.43110300	     -0.39130700	      0.15084100	      0.44673700	     -0.22636200	     -0.00678800	      0.40322400	     -0.29030600	      0.13928400	      0.06255700	     -0.15109200	     -0.34361700	      0.19502800	     -0.37368400	      0.16454200	      0.07389400	     -0.21952600	     -0.32274600	      0.19064500	     -0.31177600	     -0.02758400	      1.31633700	     -0.21013500	      0.06867400	      1.23306200	     -0.16720300	      0.06169200	      1.23711500	     -0.27524400	      0.05083200	      1.24773400	     -0.22520600	      0.09014200	      1.07663200	     -0.23292300	      0.22289500	      0.66956800	     -0.19242200	      0.13103600	      0.58484700	     -0.32277200	      0.14602700	      0.68339000	     -0.12906700	      0.05267400	      0.63256900	     -0.36481900	      0.17236400	      0.60210400	     -0.13352200	      0.05090300	      0.54521100	     -0.37023900	      0.14915400	      0.17920400	     -0.08021600	     -0.27029800	      0.29423700	     -0.43657500	      0.14838900	      0.18694200	     -0.12255900	     -0.25795000	      0.28626700	     -0.39802400	      0.25802500	      0.04028800	     -0.15329700	     -0.31489100	      0.07361100	     -0.34030100	    -70.37167834	    480.28626737	     -9.15331043	      0.15761572	      0.00000000	     -0.18024417	      0.00000000	      0.00000000	      0.00000000	      0.57460577	      0.00000000	     -0.28912869	      0.00000000	     -0.62627600	      0.00000000	      0.00000000	      0.00000000	      0.00000000	      0.00278670	      0.81228554	     -0.22625479	      0.01615902	      0.79943359	     -0.16552959	     -0.00606382	      0.79033995	     -0.28052121	      0.15961972	      0.45322290	     -0.18273106	     -0.01198123	      0.42274097	     -0.33746925	      0.14362079	      0.06302761	     -0.18934418	     -0.34397739	      0.19594032	     -0.33519676	      0.06064271	      0.87719691	     -0.23419127	      0.07122201	      0.88344651	     -0.13544740	      0.05006340	      0.87094736	     -0.33293515	     -0.09561410	      0.90078300	     -0.19038334	     -0.10184711	      0.89830047	     -0.24497366	      0.17455545	      0.45678788	     -0.12991804	     -0.01331496	      0.43110296	     -0.39130741	      0.15084128	      0.44673672	     -0.22636220	     -0.00678833	      0.40322393	     -0.29030561	      0.13928378	      0.06255713	     -0.15109213	     -0.34361747	      0.19502780	     -0.37368429	      0.16454209	      0.07389428	     -0.21952608	     -0.32274586	      0.19064462	     -0.31177574	     -0.02758363	      1.31633711	     -0.21013470	      0.06867392	      1.23306203	     -0.16720335	      0.06169231	      1.23711514	     -0.27524370	      0.05083163	      1.24773359	     -0.22520597	      0.09014214	      1.07663238	     -0.23292336	      0.22289491	      0.66956842	     -0.19242182	      0.13103637	      0.58484685	     -0.32277167	      0.14602698	      0.68339014	     -0.12906738	      0.05267382	      0.63256931	     -0.36481881	      0.17236412	      0.60210383	     -0.13352203	      0.05090309	      0.54521149	     -0.37023884	      0.14915399	      0.17920400	     -0.08021569	     -0.27029812	      0.29423702	     -0.43657523	      0.14838852	      0.18694194	     -0.12255910	     -0.25795043	      0.28626710	     -0.39802355	      0.25802505	      0.04028810	     -0.15329681	     -0.31489053	      0.07361086	     -0.34030128
